# xmcd
#
# Track frame offsets:
#	150
#	18649
#	31315
#	50949
#	68672
#	81372
#	96687
#	111406
#	129735
#	143110
#	160500
#
# Disc length: 2361 seconds
#
# Revision: 1
# Processed by: cddbd v1.5.2PL0 Copyright (c) Steve Scherf et al.
# Submitted via: audiograbber 1.83.01
#
DISCID=a009370b
DTITLE=Trisha Yearwood - Icon 2 ( Disc 1 )
DYEAR=2014
DGENRE=Country
TTITLE0=She's In Love With The Boy
TTITLE1=Wrong Side Of Memphis
TTITLE2=Walkaway Joe
TTITLE3=The Song Remembers When
TTITLE4=XXX'S And OOO'S ( An American Girl )
TTITLE5=Thinkin' About You
TTITLE6=Everybody Knows
TTITLE7=How Do I Live
TTITLE8=A Perfect Love
TTITLE9=There Goes My Baby
TTITLE10=I Would've Loved You Anyway
EXTD=
EXTT0=
EXTT1=
EXTT2=
EXTT3=
EXTT4=
EXTT5=
EXTT6=
EXTT7=
EXTT8=
EXTT9=
EXTT10=
PLAYORDER=
